G04 #@! TF.GenerationSoftware,KiCad,Pcbnew,(5.1.0)-1*
G04 #@! TF.CreationDate,2019-04-14T13:38:14+09:00*
G04 #@! TF.ProjectId,Yagi-12w14.5dBi,59616769-2d31-4327-9731-342e35644269,rev?*
G04 #@! TF.SameCoordinates,Original*
G04 #@! TF.FileFunction,Copper,L1,Top*
G04 #@! TF.FilePolarity,Positive*
%FSLAX46Y46*%
G04 Gerber Fmt 4.6, Leading zero omitted, Abs format (unit mm)*
G04 Created by KiCad (PCBNEW (5.1.0)-1) date 2019-04-14 13:38:14*
%MOMM*%
%LPD*%
G04 APERTURE LIST*
%ADD10C,1.524000*%
%ADD11C,0.100000*%
G04 APERTURE END LIST*
D10*
X34946000Y-22500000D03*
D11*
G36*
X33896961Y-19990245D02*
G01*
X33899806Y-19980866D01*
X33904427Y-19972221D01*
X33910645Y-19964645D01*
X33918221Y-19958427D01*
X33926866Y-19953806D01*
X33936245Y-19950961D01*
X33946000Y-19950000D01*
X35946000Y-19950000D01*
X35955755Y-19950961D01*
X35965134Y-19953806D01*
X35973779Y-19958427D01*
X35981355Y-19964645D01*
X35987573Y-19972221D01*
X35992194Y-19980866D01*
X35995039Y-19990245D01*
X35996000Y-20000000D01*
X35996000Y-25000000D01*
X35995039Y-25009755D01*
X35992194Y-25019134D01*
X35987573Y-25027779D01*
X35981355Y-25035355D01*
X35973779Y-25041573D01*
X35965134Y-25046194D01*
X35955755Y-25049039D01*
X35946000Y-25050000D01*
X33946000Y-25050000D01*
X33936245Y-25049039D01*
X33926866Y-25046194D01*
X33918221Y-25041573D01*
X33910645Y-25035355D01*
X33904427Y-25027779D01*
X33899806Y-25019134D01*
X33896961Y-25009755D01*
X33896000Y-25000000D01*
X33896000Y-20000000D01*
X33896961Y-19990245D01*
X33896961Y-19990245D01*
G37*
D10*
X34930000Y-29500000D03*
D11*
G36*
X33880961Y-27010245D02*
G01*
X33883806Y-27000866D01*
X33888427Y-26992221D01*
X33894645Y-26984645D01*
X33902221Y-26978427D01*
X33910866Y-26973806D01*
X33920245Y-26970961D01*
X33930000Y-26970000D01*
X35930000Y-26970000D01*
X35939755Y-26970961D01*
X35949134Y-26973806D01*
X35957779Y-26978427D01*
X35965355Y-26984645D01*
X35971573Y-26992221D01*
X35976194Y-27000866D01*
X35979039Y-27010245D01*
X35980000Y-27020000D01*
X35980000Y-31980000D01*
X35979039Y-31989755D01*
X35976194Y-31999134D01*
X35971573Y-32007779D01*
X35965355Y-32015355D01*
X35957779Y-32021573D01*
X35949134Y-32026194D01*
X35939755Y-32029039D01*
X35930000Y-32030000D01*
X33930000Y-32030000D01*
X33920245Y-32029039D01*
X33910866Y-32026194D01*
X33902221Y-32021573D01*
X33894645Y-32015355D01*
X33888427Y-32007779D01*
X33883806Y-31999134D01*
X33880961Y-31989755D01*
X33880000Y-31980000D01*
X33880000Y-27020000D01*
X33880961Y-27010245D01*
X33880961Y-27010245D01*
G37*
D10*
X23016000Y-22500000D03*
D11*
G36*
X21966961Y-19990245D02*
G01*
X21969806Y-19980866D01*
X21974427Y-19972221D01*
X21980645Y-19964645D01*
X21988221Y-19958427D01*
X21996866Y-19953806D01*
X22006245Y-19950961D01*
X22016000Y-19950000D01*
X24016000Y-19950000D01*
X24025755Y-19950961D01*
X24035134Y-19953806D01*
X24043779Y-19958427D01*
X24051355Y-19964645D01*
X24057573Y-19972221D01*
X24062194Y-19980866D01*
X24065039Y-19990245D01*
X24066000Y-20000000D01*
X24066000Y-25000000D01*
X24065039Y-25009755D01*
X24062194Y-25019134D01*
X24057573Y-25027779D01*
X24051355Y-25035355D01*
X24043779Y-25041573D01*
X24035134Y-25046194D01*
X24025755Y-25049039D01*
X24016000Y-25050000D01*
X22016000Y-25050000D01*
X22006245Y-25049039D01*
X21996866Y-25046194D01*
X21988221Y-25041573D01*
X21980645Y-25035355D01*
X21974427Y-25027779D01*
X21969806Y-25019134D01*
X21966961Y-25009755D01*
X21966000Y-25000000D01*
X21966000Y-20000000D01*
X21966961Y-19990245D01*
X21966961Y-19990245D01*
G37*
D10*
X23000000Y-29500000D03*
D11*
G36*
X21950961Y-27010245D02*
G01*
X21953806Y-27000866D01*
X21958427Y-26992221D01*
X21964645Y-26984645D01*
X21972221Y-26978427D01*
X21980866Y-26973806D01*
X21990245Y-26970961D01*
X22000000Y-26970000D01*
X24000000Y-26970000D01*
X24009755Y-26970961D01*
X24019134Y-26973806D01*
X24027779Y-26978427D01*
X24035355Y-26984645D01*
X24041573Y-26992221D01*
X24046194Y-27000866D01*
X24049039Y-27010245D01*
X24050000Y-27020000D01*
X24050000Y-31980000D01*
X24049039Y-31989755D01*
X24046194Y-31999134D01*
X24041573Y-32007779D01*
X24035355Y-32015355D01*
X24027779Y-32021573D01*
X24019134Y-32026194D01*
X24009755Y-32029039D01*
X24000000Y-32030000D01*
X22000000Y-32030000D01*
X21990245Y-32029039D01*
X21980866Y-32026194D01*
X21972221Y-32021573D01*
X21964645Y-32015355D01*
X21958427Y-32007779D01*
X21953806Y-31999134D01*
X21950961Y-31989755D01*
X21950000Y-31980000D01*
X21950000Y-27020000D01*
X21950961Y-27010245D01*
X21950961Y-27010245D01*
G37*
D10*
X170666000Y-22500000D03*
D11*
G36*
X169616961Y-19990245D02*
G01*
X169619806Y-19980866D01*
X169624427Y-19972221D01*
X169630645Y-19964645D01*
X169638221Y-19958427D01*
X169646866Y-19953806D01*
X169656245Y-19950961D01*
X169666000Y-19950000D01*
X171666000Y-19950000D01*
X171675755Y-19950961D01*
X171685134Y-19953806D01*
X171693779Y-19958427D01*
X171701355Y-19964645D01*
X171707573Y-19972221D01*
X171712194Y-19980866D01*
X171715039Y-19990245D01*
X171716000Y-20000000D01*
X171716000Y-25000000D01*
X171715039Y-25009755D01*
X171712194Y-25019134D01*
X171707573Y-25027779D01*
X171701355Y-25035355D01*
X171693779Y-25041573D01*
X171685134Y-25046194D01*
X171675755Y-25049039D01*
X171666000Y-25050000D01*
X169666000Y-25050000D01*
X169656245Y-25049039D01*
X169646866Y-25046194D01*
X169638221Y-25041573D01*
X169630645Y-25035355D01*
X169624427Y-25027779D01*
X169619806Y-25019134D01*
X169616961Y-25009755D01*
X169616000Y-25000000D01*
X169616000Y-20000000D01*
X169616961Y-19990245D01*
X169616961Y-19990245D01*
G37*
D10*
X170650000Y-29500000D03*
D11*
G36*
X169600961Y-27010245D02*
G01*
X169603806Y-27000866D01*
X169608427Y-26992221D01*
X169614645Y-26984645D01*
X169622221Y-26978427D01*
X169630866Y-26973806D01*
X169640245Y-26970961D01*
X169650000Y-26970000D01*
X171650000Y-26970000D01*
X171659755Y-26970961D01*
X171669134Y-26973806D01*
X171677779Y-26978427D01*
X171685355Y-26984645D01*
X171691573Y-26992221D01*
X171696194Y-27000866D01*
X171699039Y-27010245D01*
X171700000Y-27020000D01*
X171700000Y-31980000D01*
X171699039Y-31989755D01*
X171696194Y-31999134D01*
X171691573Y-32007779D01*
X171685355Y-32015355D01*
X171677779Y-32021573D01*
X171669134Y-32026194D01*
X171659755Y-32029039D01*
X171650000Y-32030000D01*
X169650000Y-32030000D01*
X169640245Y-32029039D01*
X169630866Y-32026194D01*
X169622221Y-32021573D01*
X169614645Y-32015355D01*
X169608427Y-32007779D01*
X169603806Y-31999134D01*
X169600961Y-31989755D01*
X169600000Y-31980000D01*
X169600000Y-27020000D01*
X169600961Y-27010245D01*
X169600961Y-27010245D01*
G37*
D10*
X155766000Y-22500000D03*
D11*
G36*
X154716961Y-19990245D02*
G01*
X154719806Y-19980866D01*
X154724427Y-19972221D01*
X154730645Y-19964645D01*
X154738221Y-19958427D01*
X154746866Y-19953806D01*
X154756245Y-19950961D01*
X154766000Y-19950000D01*
X156766000Y-19950000D01*
X156775755Y-19950961D01*
X156785134Y-19953806D01*
X156793779Y-19958427D01*
X156801355Y-19964645D01*
X156807573Y-19972221D01*
X156812194Y-19980866D01*
X156815039Y-19990245D01*
X156816000Y-20000000D01*
X156816000Y-25000000D01*
X156815039Y-25009755D01*
X156812194Y-25019134D01*
X156807573Y-25027779D01*
X156801355Y-25035355D01*
X156793779Y-25041573D01*
X156785134Y-25046194D01*
X156775755Y-25049039D01*
X156766000Y-25050000D01*
X154766000Y-25050000D01*
X154756245Y-25049039D01*
X154746866Y-25046194D01*
X154738221Y-25041573D01*
X154730645Y-25035355D01*
X154724427Y-25027779D01*
X154719806Y-25019134D01*
X154716961Y-25009755D01*
X154716000Y-25000000D01*
X154716000Y-20000000D01*
X154716961Y-19990245D01*
X154716961Y-19990245D01*
G37*
D10*
X155750000Y-29500000D03*
D11*
G36*
X154700961Y-27010245D02*
G01*
X154703806Y-27000866D01*
X154708427Y-26992221D01*
X154714645Y-26984645D01*
X154722221Y-26978427D01*
X154730866Y-26973806D01*
X154740245Y-26970961D01*
X154750000Y-26970000D01*
X156750000Y-26970000D01*
X156759755Y-26970961D01*
X156769134Y-26973806D01*
X156777779Y-26978427D01*
X156785355Y-26984645D01*
X156791573Y-26992221D01*
X156796194Y-27000866D01*
X156799039Y-27010245D01*
X156800000Y-27020000D01*
X156800000Y-31980000D01*
X156799039Y-31989755D01*
X156796194Y-31999134D01*
X156791573Y-32007779D01*
X156785355Y-32015355D01*
X156777779Y-32021573D01*
X156769134Y-32026194D01*
X156759755Y-32029039D01*
X156750000Y-32030000D01*
X154750000Y-32030000D01*
X154740245Y-32029039D01*
X154730866Y-32026194D01*
X154722221Y-32021573D01*
X154714645Y-32015355D01*
X154708427Y-32007779D01*
X154703806Y-31999134D01*
X154700961Y-31989755D01*
X154700000Y-31980000D01*
X154700000Y-27020000D01*
X154700961Y-27010245D01*
X154700961Y-27010245D01*
G37*
D10*
X143276000Y-22500000D03*
D11*
G36*
X142226961Y-19990245D02*
G01*
X142229806Y-19980866D01*
X142234427Y-19972221D01*
X142240645Y-19964645D01*
X142248221Y-19958427D01*
X142256866Y-19953806D01*
X142266245Y-19950961D01*
X142276000Y-19950000D01*
X144276000Y-19950000D01*
X144285755Y-19950961D01*
X144295134Y-19953806D01*
X144303779Y-19958427D01*
X144311355Y-19964645D01*
X144317573Y-19972221D01*
X144322194Y-19980866D01*
X144325039Y-19990245D01*
X144326000Y-20000000D01*
X144326000Y-25000000D01*
X144325039Y-25009755D01*
X144322194Y-25019134D01*
X144317573Y-25027779D01*
X144311355Y-25035355D01*
X144303779Y-25041573D01*
X144295134Y-25046194D01*
X144285755Y-25049039D01*
X144276000Y-25050000D01*
X142276000Y-25050000D01*
X142266245Y-25049039D01*
X142256866Y-25046194D01*
X142248221Y-25041573D01*
X142240645Y-25035355D01*
X142234427Y-25027779D01*
X142229806Y-25019134D01*
X142226961Y-25009755D01*
X142226000Y-25000000D01*
X142226000Y-20000000D01*
X142226961Y-19990245D01*
X142226961Y-19990245D01*
G37*
D10*
X143260000Y-29500000D03*
D11*
G36*
X142210961Y-27010245D02*
G01*
X142213806Y-27000866D01*
X142218427Y-26992221D01*
X142224645Y-26984645D01*
X142232221Y-26978427D01*
X142240866Y-26973806D01*
X142250245Y-26970961D01*
X142260000Y-26970000D01*
X144260000Y-26970000D01*
X144269755Y-26970961D01*
X144279134Y-26973806D01*
X144287779Y-26978427D01*
X144295355Y-26984645D01*
X144301573Y-26992221D01*
X144306194Y-27000866D01*
X144309039Y-27010245D01*
X144310000Y-27020000D01*
X144310000Y-31980000D01*
X144309039Y-31989755D01*
X144306194Y-31999134D01*
X144301573Y-32007779D01*
X144295355Y-32015355D01*
X144287779Y-32021573D01*
X144279134Y-32026194D01*
X144269755Y-32029039D01*
X144260000Y-32030000D01*
X142260000Y-32030000D01*
X142250245Y-32029039D01*
X142240866Y-32026194D01*
X142232221Y-32021573D01*
X142224645Y-32015355D01*
X142218427Y-32007779D01*
X142213806Y-31999134D01*
X142210961Y-31989755D01*
X142210000Y-31980000D01*
X142210000Y-27020000D01*
X142210961Y-27010245D01*
X142210961Y-27010245D01*
G37*
D10*
X130616000Y-22500000D03*
D11*
G36*
X129566961Y-19990245D02*
G01*
X129569806Y-19980866D01*
X129574427Y-19972221D01*
X129580645Y-19964645D01*
X129588221Y-19958427D01*
X129596866Y-19953806D01*
X129606245Y-19950961D01*
X129616000Y-19950000D01*
X131616000Y-19950000D01*
X131625755Y-19950961D01*
X131635134Y-19953806D01*
X131643779Y-19958427D01*
X131651355Y-19964645D01*
X131657573Y-19972221D01*
X131662194Y-19980866D01*
X131665039Y-19990245D01*
X131666000Y-20000000D01*
X131666000Y-25000000D01*
X131665039Y-25009755D01*
X131662194Y-25019134D01*
X131657573Y-25027779D01*
X131651355Y-25035355D01*
X131643779Y-25041573D01*
X131635134Y-25046194D01*
X131625755Y-25049039D01*
X131616000Y-25050000D01*
X129616000Y-25050000D01*
X129606245Y-25049039D01*
X129596866Y-25046194D01*
X129588221Y-25041573D01*
X129580645Y-25035355D01*
X129574427Y-25027779D01*
X129569806Y-25019134D01*
X129566961Y-25009755D01*
X129566000Y-25000000D01*
X129566000Y-20000000D01*
X129566961Y-19990245D01*
X129566961Y-19990245D01*
G37*
D10*
X130600000Y-29500000D03*
D11*
G36*
X129550961Y-27010245D02*
G01*
X129553806Y-27000866D01*
X129558427Y-26992221D01*
X129564645Y-26984645D01*
X129572221Y-26978427D01*
X129580866Y-26973806D01*
X129590245Y-26970961D01*
X129600000Y-26970000D01*
X131600000Y-26970000D01*
X131609755Y-26970961D01*
X131619134Y-26973806D01*
X131627779Y-26978427D01*
X131635355Y-26984645D01*
X131641573Y-26992221D01*
X131646194Y-27000866D01*
X131649039Y-27010245D01*
X131650000Y-27020000D01*
X131650000Y-31980000D01*
X131649039Y-31989755D01*
X131646194Y-31999134D01*
X131641573Y-32007779D01*
X131635355Y-32015355D01*
X131627779Y-32021573D01*
X131619134Y-32026194D01*
X131609755Y-32029039D01*
X131600000Y-32030000D01*
X129600000Y-32030000D01*
X129590245Y-32029039D01*
X129580866Y-32026194D01*
X129572221Y-32021573D01*
X129564645Y-32015355D01*
X129558427Y-32007779D01*
X129553806Y-31999134D01*
X129550961Y-31989755D01*
X129550000Y-31980000D01*
X129550000Y-27020000D01*
X129550961Y-27010245D01*
X129550961Y-27010245D01*
G37*
D10*
X119936000Y-22500000D03*
D11*
G36*
X118886961Y-19990245D02*
G01*
X118889806Y-19980866D01*
X118894427Y-19972221D01*
X118900645Y-19964645D01*
X118908221Y-19958427D01*
X118916866Y-19953806D01*
X118926245Y-19950961D01*
X118936000Y-19950000D01*
X120936000Y-19950000D01*
X120945755Y-19950961D01*
X120955134Y-19953806D01*
X120963779Y-19958427D01*
X120971355Y-19964645D01*
X120977573Y-19972221D01*
X120982194Y-19980866D01*
X120985039Y-19990245D01*
X120986000Y-20000000D01*
X120986000Y-25000000D01*
X120985039Y-25009755D01*
X120982194Y-25019134D01*
X120977573Y-25027779D01*
X120971355Y-25035355D01*
X120963779Y-25041573D01*
X120955134Y-25046194D01*
X120945755Y-25049039D01*
X120936000Y-25050000D01*
X118936000Y-25050000D01*
X118926245Y-25049039D01*
X118916866Y-25046194D01*
X118908221Y-25041573D01*
X118900645Y-25035355D01*
X118894427Y-25027779D01*
X118889806Y-25019134D01*
X118886961Y-25009755D01*
X118886000Y-25000000D01*
X118886000Y-20000000D01*
X118886961Y-19990245D01*
X118886961Y-19990245D01*
G37*
D10*
X119920000Y-29500000D03*
D11*
G36*
X118870961Y-27010245D02*
G01*
X118873806Y-27000866D01*
X118878427Y-26992221D01*
X118884645Y-26984645D01*
X118892221Y-26978427D01*
X118900866Y-26973806D01*
X118910245Y-26970961D01*
X118920000Y-26970000D01*
X120920000Y-26970000D01*
X120929755Y-26970961D01*
X120939134Y-26973806D01*
X120947779Y-26978427D01*
X120955355Y-26984645D01*
X120961573Y-26992221D01*
X120966194Y-27000866D01*
X120969039Y-27010245D01*
X120970000Y-27020000D01*
X120970000Y-31980000D01*
X120969039Y-31989755D01*
X120966194Y-31999134D01*
X120961573Y-32007779D01*
X120955355Y-32015355D01*
X120947779Y-32021573D01*
X120939134Y-32026194D01*
X120929755Y-32029039D01*
X120920000Y-32030000D01*
X118920000Y-32030000D01*
X118910245Y-32029039D01*
X118900866Y-32026194D01*
X118892221Y-32021573D01*
X118884645Y-32015355D01*
X118878427Y-32007779D01*
X118873806Y-31999134D01*
X118870961Y-31989755D01*
X118870000Y-31980000D01*
X118870000Y-27020000D01*
X118870961Y-27010245D01*
X118870961Y-27010245D01*
G37*
D10*
X106356000Y-22500000D03*
D11*
G36*
X105306961Y-19990245D02*
G01*
X105309806Y-19980866D01*
X105314427Y-19972221D01*
X105320645Y-19964645D01*
X105328221Y-19958427D01*
X105336866Y-19953806D01*
X105346245Y-19950961D01*
X105356000Y-19950000D01*
X107356000Y-19950000D01*
X107365755Y-19950961D01*
X107375134Y-19953806D01*
X107383779Y-19958427D01*
X107391355Y-19964645D01*
X107397573Y-19972221D01*
X107402194Y-19980866D01*
X107405039Y-19990245D01*
X107406000Y-20000000D01*
X107406000Y-25000000D01*
X107405039Y-25009755D01*
X107402194Y-25019134D01*
X107397573Y-25027779D01*
X107391355Y-25035355D01*
X107383779Y-25041573D01*
X107375134Y-25046194D01*
X107365755Y-25049039D01*
X107356000Y-25050000D01*
X105356000Y-25050000D01*
X105346245Y-25049039D01*
X105336866Y-25046194D01*
X105328221Y-25041573D01*
X105320645Y-25035355D01*
X105314427Y-25027779D01*
X105309806Y-25019134D01*
X105306961Y-25009755D01*
X105306000Y-25000000D01*
X105306000Y-20000000D01*
X105306961Y-19990245D01*
X105306961Y-19990245D01*
G37*
D10*
X106340000Y-29500000D03*
D11*
G36*
X105290961Y-27010245D02*
G01*
X105293806Y-27000866D01*
X105298427Y-26992221D01*
X105304645Y-26984645D01*
X105312221Y-26978427D01*
X105320866Y-26973806D01*
X105330245Y-26970961D01*
X105340000Y-26970000D01*
X107340000Y-26970000D01*
X107349755Y-26970961D01*
X107359134Y-26973806D01*
X107367779Y-26978427D01*
X107375355Y-26984645D01*
X107381573Y-26992221D01*
X107386194Y-27000866D01*
X107389039Y-27010245D01*
X107390000Y-27020000D01*
X107390000Y-31980000D01*
X107389039Y-31989755D01*
X107386194Y-31999134D01*
X107381573Y-32007779D01*
X107375355Y-32015355D01*
X107367779Y-32021573D01*
X107359134Y-32026194D01*
X107349755Y-32029039D01*
X107340000Y-32030000D01*
X105340000Y-32030000D01*
X105330245Y-32029039D01*
X105320866Y-32026194D01*
X105312221Y-32021573D01*
X105304645Y-32015355D01*
X105298427Y-32007779D01*
X105293806Y-31999134D01*
X105290961Y-31989755D01*
X105290000Y-31980000D01*
X105290000Y-27020000D01*
X105290961Y-27010245D01*
X105290961Y-27010245D01*
G37*
D10*
X92626000Y-22500000D03*
D11*
G36*
X91576961Y-19990245D02*
G01*
X91579806Y-19980866D01*
X91584427Y-19972221D01*
X91590645Y-19964645D01*
X91598221Y-19958427D01*
X91606866Y-19953806D01*
X91616245Y-19950961D01*
X91626000Y-19950000D01*
X93626000Y-19950000D01*
X93635755Y-19950961D01*
X93645134Y-19953806D01*
X93653779Y-19958427D01*
X93661355Y-19964645D01*
X93667573Y-19972221D01*
X93672194Y-19980866D01*
X93675039Y-19990245D01*
X93676000Y-20000000D01*
X93676000Y-25000000D01*
X93675039Y-25009755D01*
X93672194Y-25019134D01*
X93667573Y-25027779D01*
X93661355Y-25035355D01*
X93653779Y-25041573D01*
X93645134Y-25046194D01*
X93635755Y-25049039D01*
X93626000Y-25050000D01*
X91626000Y-25050000D01*
X91616245Y-25049039D01*
X91606866Y-25046194D01*
X91598221Y-25041573D01*
X91590645Y-25035355D01*
X91584427Y-25027779D01*
X91579806Y-25019134D01*
X91576961Y-25009755D01*
X91576000Y-25000000D01*
X91576000Y-20000000D01*
X91576961Y-19990245D01*
X91576961Y-19990245D01*
G37*
D10*
X92610000Y-29500000D03*
D11*
G36*
X91560961Y-27010245D02*
G01*
X91563806Y-27000866D01*
X91568427Y-26992221D01*
X91574645Y-26984645D01*
X91582221Y-26978427D01*
X91590866Y-26973806D01*
X91600245Y-26970961D01*
X91610000Y-26970000D01*
X93610000Y-26970000D01*
X93619755Y-26970961D01*
X93629134Y-26973806D01*
X93637779Y-26978427D01*
X93645355Y-26984645D01*
X93651573Y-26992221D01*
X93656194Y-27000866D01*
X93659039Y-27010245D01*
X93660000Y-27020000D01*
X93660000Y-31980000D01*
X93659039Y-31989755D01*
X93656194Y-31999134D01*
X93651573Y-32007779D01*
X93645355Y-32015355D01*
X93637779Y-32021573D01*
X93629134Y-32026194D01*
X93619755Y-32029039D01*
X93610000Y-32030000D01*
X91610000Y-32030000D01*
X91600245Y-32029039D01*
X91590866Y-32026194D01*
X91582221Y-32021573D01*
X91574645Y-32015355D01*
X91568427Y-32007779D01*
X91563806Y-31999134D01*
X91560961Y-31989755D01*
X91560000Y-31980000D01*
X91560000Y-27020000D01*
X91560961Y-27010245D01*
X91560961Y-27010245D01*
G37*
D10*
X74806000Y-22500000D03*
D11*
G36*
X73756961Y-19990245D02*
G01*
X73759806Y-19980866D01*
X73764427Y-19972221D01*
X73770645Y-19964645D01*
X73778221Y-19958427D01*
X73786866Y-19953806D01*
X73796245Y-19950961D01*
X73806000Y-19950000D01*
X75806000Y-19950000D01*
X75815755Y-19950961D01*
X75825134Y-19953806D01*
X75833779Y-19958427D01*
X75841355Y-19964645D01*
X75847573Y-19972221D01*
X75852194Y-19980866D01*
X75855039Y-19990245D01*
X75856000Y-20000000D01*
X75856000Y-25000000D01*
X75855039Y-25009755D01*
X75852194Y-25019134D01*
X75847573Y-25027779D01*
X75841355Y-25035355D01*
X75833779Y-25041573D01*
X75825134Y-25046194D01*
X75815755Y-25049039D01*
X75806000Y-25050000D01*
X73806000Y-25050000D01*
X73796245Y-25049039D01*
X73786866Y-25046194D01*
X73778221Y-25041573D01*
X73770645Y-25035355D01*
X73764427Y-25027779D01*
X73759806Y-25019134D01*
X73756961Y-25009755D01*
X73756000Y-25000000D01*
X73756000Y-20000000D01*
X73756961Y-19990245D01*
X73756961Y-19990245D01*
G37*
D10*
X74790000Y-29500000D03*
D11*
G36*
X73740961Y-27010245D02*
G01*
X73743806Y-27000866D01*
X73748427Y-26992221D01*
X73754645Y-26984645D01*
X73762221Y-26978427D01*
X73770866Y-26973806D01*
X73780245Y-26970961D01*
X73790000Y-26970000D01*
X75790000Y-26970000D01*
X75799755Y-26970961D01*
X75809134Y-26973806D01*
X75817779Y-26978427D01*
X75825355Y-26984645D01*
X75831573Y-26992221D01*
X75836194Y-27000866D01*
X75839039Y-27010245D01*
X75840000Y-27020000D01*
X75840000Y-31980000D01*
X75839039Y-31989755D01*
X75836194Y-31999134D01*
X75831573Y-32007779D01*
X75825355Y-32015355D01*
X75817779Y-32021573D01*
X75809134Y-32026194D01*
X75799755Y-32029039D01*
X75790000Y-32030000D01*
X73790000Y-32030000D01*
X73780245Y-32029039D01*
X73770866Y-32026194D01*
X73762221Y-32021573D01*
X73754645Y-32015355D01*
X73748427Y-32007779D01*
X73743806Y-31999134D01*
X73740961Y-31989755D01*
X73740000Y-31980000D01*
X73740000Y-27020000D01*
X73740961Y-27010245D01*
X73740961Y-27010245D01*
G37*
D10*
X54296000Y-22500000D03*
D11*
G36*
X53246961Y-19990245D02*
G01*
X53249806Y-19980866D01*
X53254427Y-19972221D01*
X53260645Y-19964645D01*
X53268221Y-19958427D01*
X53276866Y-19953806D01*
X53286245Y-19950961D01*
X53296000Y-19950000D01*
X55296000Y-19950000D01*
X55305755Y-19950961D01*
X55315134Y-19953806D01*
X55323779Y-19958427D01*
X55331355Y-19964645D01*
X55337573Y-19972221D01*
X55342194Y-19980866D01*
X55345039Y-19990245D01*
X55346000Y-20000000D01*
X55346000Y-25000000D01*
X55345039Y-25009755D01*
X55342194Y-25019134D01*
X55337573Y-25027779D01*
X55331355Y-25035355D01*
X55323779Y-25041573D01*
X55315134Y-25046194D01*
X55305755Y-25049039D01*
X55296000Y-25050000D01*
X53296000Y-25050000D01*
X53286245Y-25049039D01*
X53276866Y-25046194D01*
X53268221Y-25041573D01*
X53260645Y-25035355D01*
X53254427Y-25027779D01*
X53249806Y-25019134D01*
X53246961Y-25009755D01*
X53246000Y-25000000D01*
X53246000Y-20000000D01*
X53246961Y-19990245D01*
X53246961Y-19990245D01*
G37*
D10*
X54280000Y-29500000D03*
D11*
G36*
X53230961Y-27010245D02*
G01*
X53233806Y-27000866D01*
X53238427Y-26992221D01*
X53244645Y-26984645D01*
X53252221Y-26978427D01*
X53260866Y-26973806D01*
X53270245Y-26970961D01*
X53280000Y-26970000D01*
X55280000Y-26970000D01*
X55289755Y-26970961D01*
X55299134Y-26973806D01*
X55307779Y-26978427D01*
X55315355Y-26984645D01*
X55321573Y-26992221D01*
X55326194Y-27000866D01*
X55329039Y-27010245D01*
X55330000Y-27020000D01*
X55330000Y-31980000D01*
X55329039Y-31989755D01*
X55326194Y-31999134D01*
X55321573Y-32007779D01*
X55315355Y-32015355D01*
X55307779Y-32021573D01*
X55299134Y-32026194D01*
X55289755Y-32029039D01*
X55280000Y-32030000D01*
X53280000Y-32030000D01*
X53270245Y-32029039D01*
X53260866Y-32026194D01*
X53252221Y-32021573D01*
X53244645Y-32015355D01*
X53238427Y-32007779D01*
X53233806Y-31999134D01*
X53230961Y-31989755D01*
X53230000Y-31980000D01*
X53230000Y-27020000D01*
X53230961Y-27010245D01*
X53230961Y-27010245D01*
G37*
D10*
X40896000Y-22500000D03*
D11*
G36*
X39846961Y-19990245D02*
G01*
X39849806Y-19980866D01*
X39854427Y-19972221D01*
X39860645Y-19964645D01*
X39868221Y-19958427D01*
X39876866Y-19953806D01*
X39886245Y-19950961D01*
X39896000Y-19950000D01*
X41896000Y-19950000D01*
X41905755Y-19950961D01*
X41915134Y-19953806D01*
X41923779Y-19958427D01*
X41931355Y-19964645D01*
X41937573Y-19972221D01*
X41942194Y-19980866D01*
X41945039Y-19990245D01*
X41946000Y-20000000D01*
X41946000Y-25000000D01*
X41945039Y-25009755D01*
X41942194Y-25019134D01*
X41937573Y-25027779D01*
X41931355Y-25035355D01*
X41923779Y-25041573D01*
X41915134Y-25046194D01*
X41905755Y-25049039D01*
X41896000Y-25050000D01*
X39896000Y-25050000D01*
X39886245Y-25049039D01*
X39876866Y-25046194D01*
X39868221Y-25041573D01*
X39860645Y-25035355D01*
X39854427Y-25027779D01*
X39849806Y-25019134D01*
X39846961Y-25009755D01*
X39846000Y-25000000D01*
X39846000Y-20000000D01*
X39846961Y-19990245D01*
X39846961Y-19990245D01*
G37*
D10*
X40880000Y-29500000D03*
D11*
G36*
X39830961Y-27010245D02*
G01*
X39833806Y-27000866D01*
X39838427Y-26992221D01*
X39844645Y-26984645D01*
X39852221Y-26978427D01*
X39860866Y-26973806D01*
X39870245Y-26970961D01*
X39880000Y-26970000D01*
X41880000Y-26970000D01*
X41889755Y-26970961D01*
X41899134Y-26973806D01*
X41907779Y-26978427D01*
X41915355Y-26984645D01*
X41921573Y-26992221D01*
X41926194Y-27000866D01*
X41929039Y-27010245D01*
X41930000Y-27020000D01*
X41930000Y-31980000D01*
X41929039Y-31989755D01*
X41926194Y-31999134D01*
X41921573Y-32007779D01*
X41915355Y-32015355D01*
X41907779Y-32021573D01*
X41899134Y-32026194D01*
X41889755Y-32029039D01*
X41880000Y-32030000D01*
X39880000Y-32030000D01*
X39870245Y-32029039D01*
X39860866Y-32026194D01*
X39852221Y-32021573D01*
X39844645Y-32015355D01*
X39838427Y-32007779D01*
X39833806Y-31999134D01*
X39830961Y-31989755D01*
X39830000Y-31980000D01*
X39830000Y-27020000D01*
X39830961Y-27010245D01*
X39830961Y-27010245D01*
G37*
M02*
