G04 #@! TF.GenerationSoftware,KiCad,Pcbnew,(5.1.0)-1*
G04 #@! TF.CreationDate,2019-04-14T13:38:14+09:00*
G04 #@! TF.ProjectId,Yagi-12w14.5dBi,59616769-2d31-4327-9731-342e35644269,rev?*
G04 #@! TF.SameCoordinates,Original*
G04 #@! TF.FileFunction,Soldermask,Top*
G04 #@! TF.FilePolarity,Negative*
%FSLAX46Y46*%
G04 Gerber Fmt 4.6, Leading zero omitted, Abs format (unit mm)*
G04 Created by KiCad (PCBNEW (5.1.0)-1) date 2019-04-14 13:38:14*
%MOMM*%
%LPD*%
G04 APERTURE LIST*
%ADD10C,0.100000*%
G04 APERTURE END LIST*
D10*
G36*
X171658126Y-26918698D02*
G01*
X171658730Y-26918757D01*
X171679460Y-26922881D01*
X171697842Y-26930495D01*
X171714386Y-26941550D01*
X171728450Y-26955614D01*
X171739505Y-26972158D01*
X171747119Y-26990540D01*
X171751243Y-27011270D01*
X171751302Y-27011874D01*
X171751852Y-27023062D01*
X171751852Y-31976938D01*
X171751302Y-31988126D01*
X171751243Y-31988730D01*
X171747119Y-32009460D01*
X171739505Y-32027842D01*
X171728450Y-32044386D01*
X171714386Y-32058450D01*
X171697842Y-32069505D01*
X171679460Y-32077119D01*
X171658730Y-32081243D01*
X171658126Y-32081302D01*
X171646938Y-32081852D01*
X169653062Y-32081852D01*
X169641874Y-32081302D01*
X169641270Y-32081243D01*
X169620540Y-32077119D01*
X169602158Y-32069505D01*
X169585614Y-32058450D01*
X169571550Y-32044386D01*
X169560495Y-32027842D01*
X169552881Y-32009460D01*
X169548757Y-31988730D01*
X169548698Y-31988126D01*
X169548148Y-31976938D01*
X169548148Y-27023062D01*
X169548698Y-27011874D01*
X169548757Y-27011270D01*
X169552881Y-26990540D01*
X169560495Y-26972158D01*
X169571550Y-26955614D01*
X169585614Y-26941550D01*
X169602158Y-26930495D01*
X169620540Y-26922881D01*
X169641270Y-26918757D01*
X169641874Y-26918698D01*
X169653062Y-26918148D01*
X171646938Y-26918148D01*
X171658126Y-26918698D01*
X171658126Y-26918698D01*
G37*
G36*
X24008126Y-26918698D02*
G01*
X24008730Y-26918757D01*
X24029460Y-26922881D01*
X24047842Y-26930495D01*
X24064386Y-26941550D01*
X24078450Y-26955614D01*
X24089505Y-26972158D01*
X24097119Y-26990540D01*
X24101243Y-27011270D01*
X24101302Y-27011874D01*
X24101852Y-27023062D01*
X24101852Y-31976938D01*
X24101302Y-31988126D01*
X24101243Y-31988730D01*
X24097119Y-32009460D01*
X24089505Y-32027842D01*
X24078450Y-32044386D01*
X24064386Y-32058450D01*
X24047842Y-32069505D01*
X24029460Y-32077119D01*
X24008730Y-32081243D01*
X24008126Y-32081302D01*
X23996938Y-32081852D01*
X22003062Y-32081852D01*
X21991874Y-32081302D01*
X21991270Y-32081243D01*
X21970540Y-32077119D01*
X21952158Y-32069505D01*
X21935614Y-32058450D01*
X21921550Y-32044386D01*
X21910495Y-32027842D01*
X21902881Y-32009460D01*
X21898757Y-31988730D01*
X21898698Y-31988126D01*
X21898148Y-31976938D01*
X21898148Y-27023062D01*
X21898698Y-27011874D01*
X21898757Y-27011270D01*
X21902881Y-26990540D01*
X21910495Y-26972158D01*
X21921550Y-26955614D01*
X21935614Y-26941550D01*
X21952158Y-26930495D01*
X21970540Y-26922881D01*
X21991270Y-26918757D01*
X21991874Y-26918698D01*
X22003062Y-26918148D01*
X23996938Y-26918148D01*
X24008126Y-26918698D01*
X24008126Y-26918698D01*
G37*
G36*
X35938126Y-26918698D02*
G01*
X35938730Y-26918757D01*
X35959460Y-26922881D01*
X35977842Y-26930495D01*
X35994386Y-26941550D01*
X36008450Y-26955614D01*
X36019505Y-26972158D01*
X36027119Y-26990540D01*
X36031243Y-27011270D01*
X36031302Y-27011874D01*
X36031852Y-27023062D01*
X36031852Y-31976938D01*
X36031302Y-31988126D01*
X36031243Y-31988730D01*
X36027119Y-32009460D01*
X36019505Y-32027842D01*
X36008450Y-32044386D01*
X35994386Y-32058450D01*
X35977842Y-32069505D01*
X35959460Y-32077119D01*
X35938730Y-32081243D01*
X35938126Y-32081302D01*
X35926938Y-32081852D01*
X33933062Y-32081852D01*
X33921874Y-32081302D01*
X33921270Y-32081243D01*
X33900540Y-32077119D01*
X33882158Y-32069505D01*
X33865614Y-32058450D01*
X33851550Y-32044386D01*
X33840495Y-32027842D01*
X33832881Y-32009460D01*
X33828757Y-31988730D01*
X33828698Y-31988126D01*
X33828148Y-31976938D01*
X33828148Y-27023062D01*
X33828698Y-27011874D01*
X33828757Y-27011270D01*
X33832881Y-26990540D01*
X33840495Y-26972158D01*
X33851550Y-26955614D01*
X33865614Y-26941550D01*
X33882158Y-26930495D01*
X33900540Y-26922881D01*
X33921270Y-26918757D01*
X33921874Y-26918698D01*
X33933062Y-26918148D01*
X35926938Y-26918148D01*
X35938126Y-26918698D01*
X35938126Y-26918698D01*
G37*
G36*
X41888126Y-26918698D02*
G01*
X41888730Y-26918757D01*
X41909460Y-26922881D01*
X41927842Y-26930495D01*
X41944386Y-26941550D01*
X41958450Y-26955614D01*
X41969505Y-26972158D01*
X41977119Y-26990540D01*
X41981243Y-27011270D01*
X41981302Y-27011874D01*
X41981852Y-27023062D01*
X41981852Y-31976938D01*
X41981302Y-31988126D01*
X41981243Y-31988730D01*
X41977119Y-32009460D01*
X41969505Y-32027842D01*
X41958450Y-32044386D01*
X41944386Y-32058450D01*
X41927842Y-32069505D01*
X41909460Y-32077119D01*
X41888730Y-32081243D01*
X41888126Y-32081302D01*
X41876938Y-32081852D01*
X39883062Y-32081852D01*
X39871874Y-32081302D01*
X39871270Y-32081243D01*
X39850540Y-32077119D01*
X39832158Y-32069505D01*
X39815614Y-32058450D01*
X39801550Y-32044386D01*
X39790495Y-32027842D01*
X39782881Y-32009460D01*
X39778757Y-31988730D01*
X39778698Y-31988126D01*
X39778148Y-31976938D01*
X39778148Y-27023062D01*
X39778698Y-27011874D01*
X39778757Y-27011270D01*
X39782881Y-26990540D01*
X39790495Y-26972158D01*
X39801550Y-26955614D01*
X39815614Y-26941550D01*
X39832158Y-26930495D01*
X39850540Y-26922881D01*
X39871270Y-26918757D01*
X39871874Y-26918698D01*
X39883062Y-26918148D01*
X41876938Y-26918148D01*
X41888126Y-26918698D01*
X41888126Y-26918698D01*
G37*
G36*
X55288126Y-26918698D02*
G01*
X55288730Y-26918757D01*
X55309460Y-26922881D01*
X55327842Y-26930495D01*
X55344386Y-26941550D01*
X55358450Y-26955614D01*
X55369505Y-26972158D01*
X55377119Y-26990540D01*
X55381243Y-27011270D01*
X55381302Y-27011874D01*
X55381852Y-27023062D01*
X55381852Y-31976938D01*
X55381302Y-31988126D01*
X55381243Y-31988730D01*
X55377119Y-32009460D01*
X55369505Y-32027842D01*
X55358450Y-32044386D01*
X55344386Y-32058450D01*
X55327842Y-32069505D01*
X55309460Y-32077119D01*
X55288730Y-32081243D01*
X55288126Y-32081302D01*
X55276938Y-32081852D01*
X53283062Y-32081852D01*
X53271874Y-32081302D01*
X53271270Y-32081243D01*
X53250540Y-32077119D01*
X53232158Y-32069505D01*
X53215614Y-32058450D01*
X53201550Y-32044386D01*
X53190495Y-32027842D01*
X53182881Y-32009460D01*
X53178757Y-31988730D01*
X53178698Y-31988126D01*
X53178148Y-31976938D01*
X53178148Y-27023062D01*
X53178698Y-27011874D01*
X53178757Y-27011270D01*
X53182881Y-26990540D01*
X53190495Y-26972158D01*
X53201550Y-26955614D01*
X53215614Y-26941550D01*
X53232158Y-26930495D01*
X53250540Y-26922881D01*
X53271270Y-26918757D01*
X53271874Y-26918698D01*
X53283062Y-26918148D01*
X55276938Y-26918148D01*
X55288126Y-26918698D01*
X55288126Y-26918698D01*
G37*
G36*
X75798126Y-26918698D02*
G01*
X75798730Y-26918757D01*
X75819460Y-26922881D01*
X75837842Y-26930495D01*
X75854386Y-26941550D01*
X75868450Y-26955614D01*
X75879505Y-26972158D01*
X75887119Y-26990540D01*
X75891243Y-27011270D01*
X75891302Y-27011874D01*
X75891852Y-27023062D01*
X75891852Y-31976938D01*
X75891302Y-31988126D01*
X75891243Y-31988730D01*
X75887119Y-32009460D01*
X75879505Y-32027842D01*
X75868450Y-32044386D01*
X75854386Y-32058450D01*
X75837842Y-32069505D01*
X75819460Y-32077119D01*
X75798730Y-32081243D01*
X75798126Y-32081302D01*
X75786938Y-32081852D01*
X73793062Y-32081852D01*
X73781874Y-32081302D01*
X73781270Y-32081243D01*
X73760540Y-32077119D01*
X73742158Y-32069505D01*
X73725614Y-32058450D01*
X73711550Y-32044386D01*
X73700495Y-32027842D01*
X73692881Y-32009460D01*
X73688757Y-31988730D01*
X73688698Y-31988126D01*
X73688148Y-31976938D01*
X73688148Y-27023062D01*
X73688698Y-27011874D01*
X73688757Y-27011270D01*
X73692881Y-26990540D01*
X73700495Y-26972158D01*
X73711550Y-26955614D01*
X73725614Y-26941550D01*
X73742158Y-26930495D01*
X73760540Y-26922881D01*
X73781270Y-26918757D01*
X73781874Y-26918698D01*
X73793062Y-26918148D01*
X75786938Y-26918148D01*
X75798126Y-26918698D01*
X75798126Y-26918698D01*
G37*
G36*
X107348126Y-26918698D02*
G01*
X107348730Y-26918757D01*
X107369460Y-26922881D01*
X107387842Y-26930495D01*
X107404386Y-26941550D01*
X107418450Y-26955614D01*
X107429505Y-26972158D01*
X107437119Y-26990540D01*
X107441243Y-27011270D01*
X107441302Y-27011874D01*
X107441852Y-27023062D01*
X107441852Y-31976938D01*
X107441302Y-31988126D01*
X107441243Y-31988730D01*
X107437119Y-32009460D01*
X107429505Y-32027842D01*
X107418450Y-32044386D01*
X107404386Y-32058450D01*
X107387842Y-32069505D01*
X107369460Y-32077119D01*
X107348730Y-32081243D01*
X107348126Y-32081302D01*
X107336938Y-32081852D01*
X105343062Y-32081852D01*
X105331874Y-32081302D01*
X105331270Y-32081243D01*
X105310540Y-32077119D01*
X105292158Y-32069505D01*
X105275614Y-32058450D01*
X105261550Y-32044386D01*
X105250495Y-32027842D01*
X105242881Y-32009460D01*
X105238757Y-31988730D01*
X105238698Y-31988126D01*
X105238148Y-31976938D01*
X105238148Y-27023062D01*
X105238698Y-27011874D01*
X105238757Y-27011270D01*
X105242881Y-26990540D01*
X105250495Y-26972158D01*
X105261550Y-26955614D01*
X105275614Y-26941550D01*
X105292158Y-26930495D01*
X105310540Y-26922881D01*
X105331270Y-26918757D01*
X105331874Y-26918698D01*
X105343062Y-26918148D01*
X107336938Y-26918148D01*
X107348126Y-26918698D01*
X107348126Y-26918698D01*
G37*
G36*
X120928126Y-26918698D02*
G01*
X120928730Y-26918757D01*
X120949460Y-26922881D01*
X120967842Y-26930495D01*
X120984386Y-26941550D01*
X120998450Y-26955614D01*
X121009505Y-26972158D01*
X121017119Y-26990540D01*
X121021243Y-27011270D01*
X121021302Y-27011874D01*
X121021852Y-27023062D01*
X121021852Y-31976938D01*
X121021302Y-31988126D01*
X121021243Y-31988730D01*
X121017119Y-32009460D01*
X121009505Y-32027842D01*
X120998450Y-32044386D01*
X120984386Y-32058450D01*
X120967842Y-32069505D01*
X120949460Y-32077119D01*
X120928730Y-32081243D01*
X120928126Y-32081302D01*
X120916938Y-32081852D01*
X118923062Y-32081852D01*
X118911874Y-32081302D01*
X118911270Y-32081243D01*
X118890540Y-32077119D01*
X118872158Y-32069505D01*
X118855614Y-32058450D01*
X118841550Y-32044386D01*
X118830495Y-32027842D01*
X118822881Y-32009460D01*
X118818757Y-31988730D01*
X118818698Y-31988126D01*
X118818148Y-31976938D01*
X118818148Y-27023062D01*
X118818698Y-27011874D01*
X118818757Y-27011270D01*
X118822881Y-26990540D01*
X118830495Y-26972158D01*
X118841550Y-26955614D01*
X118855614Y-26941550D01*
X118872158Y-26930495D01*
X118890540Y-26922881D01*
X118911270Y-26918757D01*
X118911874Y-26918698D01*
X118923062Y-26918148D01*
X120916938Y-26918148D01*
X120928126Y-26918698D01*
X120928126Y-26918698D01*
G37*
G36*
X131608126Y-26918698D02*
G01*
X131608730Y-26918757D01*
X131629460Y-26922881D01*
X131647842Y-26930495D01*
X131664386Y-26941550D01*
X131678450Y-26955614D01*
X131689505Y-26972158D01*
X131697119Y-26990540D01*
X131701243Y-27011270D01*
X131701302Y-27011874D01*
X131701852Y-27023062D01*
X131701852Y-31976938D01*
X131701302Y-31988126D01*
X131701243Y-31988730D01*
X131697119Y-32009460D01*
X131689505Y-32027842D01*
X131678450Y-32044386D01*
X131664386Y-32058450D01*
X131647842Y-32069505D01*
X131629460Y-32077119D01*
X131608730Y-32081243D01*
X131608126Y-32081302D01*
X131596938Y-32081852D01*
X129603062Y-32081852D01*
X129591874Y-32081302D01*
X129591270Y-32081243D01*
X129570540Y-32077119D01*
X129552158Y-32069505D01*
X129535614Y-32058450D01*
X129521550Y-32044386D01*
X129510495Y-32027842D01*
X129502881Y-32009460D01*
X129498757Y-31988730D01*
X129498698Y-31988126D01*
X129498148Y-31976938D01*
X129498148Y-27023062D01*
X129498698Y-27011874D01*
X129498757Y-27011270D01*
X129502881Y-26990540D01*
X129510495Y-26972158D01*
X129521550Y-26955614D01*
X129535614Y-26941550D01*
X129552158Y-26930495D01*
X129570540Y-26922881D01*
X129591270Y-26918757D01*
X129591874Y-26918698D01*
X129603062Y-26918148D01*
X131596938Y-26918148D01*
X131608126Y-26918698D01*
X131608126Y-26918698D01*
G37*
G36*
X144268126Y-26918698D02*
G01*
X144268730Y-26918757D01*
X144289460Y-26922881D01*
X144307842Y-26930495D01*
X144324386Y-26941550D01*
X144338450Y-26955614D01*
X144349505Y-26972158D01*
X144357119Y-26990540D01*
X144361243Y-27011270D01*
X144361302Y-27011874D01*
X144361852Y-27023062D01*
X144361852Y-31976938D01*
X144361302Y-31988126D01*
X144361243Y-31988730D01*
X144357119Y-32009460D01*
X144349505Y-32027842D01*
X144338450Y-32044386D01*
X144324386Y-32058450D01*
X144307842Y-32069505D01*
X144289460Y-32077119D01*
X144268730Y-32081243D01*
X144268126Y-32081302D01*
X144256938Y-32081852D01*
X142263062Y-32081852D01*
X142251874Y-32081302D01*
X142251270Y-32081243D01*
X142230540Y-32077119D01*
X142212158Y-32069505D01*
X142195614Y-32058450D01*
X142181550Y-32044386D01*
X142170495Y-32027842D01*
X142162881Y-32009460D01*
X142158757Y-31988730D01*
X142158698Y-31988126D01*
X142158148Y-31976938D01*
X142158148Y-27023062D01*
X142158698Y-27011874D01*
X142158757Y-27011270D01*
X142162881Y-26990540D01*
X142170495Y-26972158D01*
X142181550Y-26955614D01*
X142195614Y-26941550D01*
X142212158Y-26930495D01*
X142230540Y-26922881D01*
X142251270Y-26918757D01*
X142251874Y-26918698D01*
X142263062Y-26918148D01*
X144256938Y-26918148D01*
X144268126Y-26918698D01*
X144268126Y-26918698D01*
G37*
G36*
X93618126Y-26918698D02*
G01*
X93618730Y-26918757D01*
X93639460Y-26922881D01*
X93657842Y-26930495D01*
X93674386Y-26941550D01*
X93688450Y-26955614D01*
X93699505Y-26972158D01*
X93707119Y-26990540D01*
X93711243Y-27011270D01*
X93711302Y-27011874D01*
X93711852Y-27023062D01*
X93711852Y-31976938D01*
X93711302Y-31988126D01*
X93711243Y-31988730D01*
X93707119Y-32009460D01*
X93699505Y-32027842D01*
X93688450Y-32044386D01*
X93674386Y-32058450D01*
X93657842Y-32069505D01*
X93639460Y-32077119D01*
X93618730Y-32081243D01*
X93618126Y-32081302D01*
X93606938Y-32081852D01*
X91613062Y-32081852D01*
X91601874Y-32081302D01*
X91601270Y-32081243D01*
X91580540Y-32077119D01*
X91562158Y-32069505D01*
X91545614Y-32058450D01*
X91531550Y-32044386D01*
X91520495Y-32027842D01*
X91512881Y-32009460D01*
X91508757Y-31988730D01*
X91508698Y-31988126D01*
X91508148Y-31976938D01*
X91508148Y-27023062D01*
X91508698Y-27011874D01*
X91508757Y-27011270D01*
X91512881Y-26990540D01*
X91520495Y-26972158D01*
X91531550Y-26955614D01*
X91545614Y-26941550D01*
X91562158Y-26930495D01*
X91580540Y-26922881D01*
X91601270Y-26918757D01*
X91601874Y-26918698D01*
X91613062Y-26918148D01*
X93606938Y-26918148D01*
X93618126Y-26918698D01*
X93618126Y-26918698D01*
G37*
G36*
X156758126Y-26918698D02*
G01*
X156758730Y-26918757D01*
X156779460Y-26922881D01*
X156797842Y-26930495D01*
X156814386Y-26941550D01*
X156828450Y-26955614D01*
X156839505Y-26972158D01*
X156847119Y-26990540D01*
X156851243Y-27011270D01*
X156851302Y-27011874D01*
X156851852Y-27023062D01*
X156851852Y-31976938D01*
X156851302Y-31988126D01*
X156851243Y-31988730D01*
X156847119Y-32009460D01*
X156839505Y-32027842D01*
X156828450Y-32044386D01*
X156814386Y-32058450D01*
X156797842Y-32069505D01*
X156779460Y-32077119D01*
X156758730Y-32081243D01*
X156758126Y-32081302D01*
X156746938Y-32081852D01*
X154753062Y-32081852D01*
X154741874Y-32081302D01*
X154741270Y-32081243D01*
X154720540Y-32077119D01*
X154702158Y-32069505D01*
X154685614Y-32058450D01*
X154671550Y-32044386D01*
X154660495Y-32027842D01*
X154652881Y-32009460D01*
X154648757Y-31988730D01*
X154648698Y-31988126D01*
X154648148Y-31976938D01*
X154648148Y-27023062D01*
X154648698Y-27011874D01*
X154648757Y-27011270D01*
X154652881Y-26990540D01*
X154660495Y-26972158D01*
X154671550Y-26955614D01*
X154685614Y-26941550D01*
X154702158Y-26930495D01*
X154720540Y-26922881D01*
X154741270Y-26918757D01*
X154741874Y-26918698D01*
X154753062Y-26918148D01*
X156746938Y-26918148D01*
X156758126Y-26918698D01*
X156758126Y-26918698D01*
G37*
G36*
X29744098Y-23547033D02*
G01*
X30208350Y-23739332D01*
X30208352Y-23739333D01*
X30626168Y-24018509D01*
X30981491Y-24373832D01*
X31260667Y-24791648D01*
X31260668Y-24791650D01*
X31452967Y-25255902D01*
X31551000Y-25748747D01*
X31551000Y-26251253D01*
X31452967Y-26744098D01*
X31260668Y-27208350D01*
X31260667Y-27208352D01*
X30981491Y-27626168D01*
X30626168Y-27981491D01*
X30208352Y-28260667D01*
X30208351Y-28260668D01*
X30208350Y-28260668D01*
X29744098Y-28452967D01*
X29251253Y-28551000D01*
X28748747Y-28551000D01*
X28255902Y-28452967D01*
X27791650Y-28260668D01*
X27791649Y-28260668D01*
X27791648Y-28260667D01*
X27373832Y-27981491D01*
X27018509Y-27626168D01*
X26739333Y-27208352D01*
X26739332Y-27208350D01*
X26547033Y-26744098D01*
X26449000Y-26251253D01*
X26449000Y-25748747D01*
X26547033Y-25255902D01*
X26739332Y-24791650D01*
X26739333Y-24791648D01*
X27018509Y-24373832D01*
X27373832Y-24018509D01*
X27791648Y-23739333D01*
X27791650Y-23739332D01*
X28255902Y-23547033D01*
X28748747Y-23449000D01*
X29251253Y-23449000D01*
X29744098Y-23547033D01*
X29744098Y-23547033D01*
G37*
G36*
X65744098Y-23547033D02*
G01*
X66208350Y-23739332D01*
X66208352Y-23739333D01*
X66626168Y-24018509D01*
X66981491Y-24373832D01*
X67260667Y-24791648D01*
X67260668Y-24791650D01*
X67452967Y-25255902D01*
X67551000Y-25748747D01*
X67551000Y-26251253D01*
X67452967Y-26744098D01*
X67260668Y-27208350D01*
X67260667Y-27208352D01*
X66981491Y-27626168D01*
X66626168Y-27981491D01*
X66208352Y-28260667D01*
X66208351Y-28260668D01*
X66208350Y-28260668D01*
X65744098Y-28452967D01*
X65251253Y-28551000D01*
X64748747Y-28551000D01*
X64255902Y-28452967D01*
X63791650Y-28260668D01*
X63791649Y-28260668D01*
X63791648Y-28260667D01*
X63373832Y-27981491D01*
X63018509Y-27626168D01*
X62739333Y-27208352D01*
X62739332Y-27208350D01*
X62547033Y-26744098D01*
X62449000Y-26251253D01*
X62449000Y-25748747D01*
X62547033Y-25255902D01*
X62739332Y-24791650D01*
X62739333Y-24791648D01*
X63018509Y-24373832D01*
X63373832Y-24018509D01*
X63791648Y-23739333D01*
X63791650Y-23739332D01*
X64255902Y-23547033D01*
X64748747Y-23449000D01*
X65251253Y-23449000D01*
X65744098Y-23547033D01*
X65744098Y-23547033D01*
G37*
G36*
X24024126Y-19898698D02*
G01*
X24024730Y-19898757D01*
X24045460Y-19902881D01*
X24063842Y-19910495D01*
X24080386Y-19921550D01*
X24094450Y-19935614D01*
X24105505Y-19952158D01*
X24113119Y-19970540D01*
X24117243Y-19991270D01*
X24117302Y-19991874D01*
X24117852Y-20003062D01*
X24117852Y-24996938D01*
X24117302Y-25008126D01*
X24117243Y-25008730D01*
X24113119Y-25029460D01*
X24105505Y-25047842D01*
X24094450Y-25064386D01*
X24080386Y-25078450D01*
X24063842Y-25089505D01*
X24045460Y-25097119D01*
X24024730Y-25101243D01*
X24024126Y-25101302D01*
X24012938Y-25101852D01*
X22019062Y-25101852D01*
X22007874Y-25101302D01*
X22007270Y-25101243D01*
X21986540Y-25097119D01*
X21968158Y-25089505D01*
X21951614Y-25078450D01*
X21937550Y-25064386D01*
X21926495Y-25047842D01*
X21918881Y-25029460D01*
X21914757Y-25008730D01*
X21914698Y-25008126D01*
X21914148Y-24996938D01*
X21914148Y-20003062D01*
X21914698Y-19991874D01*
X21914757Y-19991270D01*
X21918881Y-19970540D01*
X21926495Y-19952158D01*
X21937550Y-19935614D01*
X21951614Y-19921550D01*
X21968158Y-19910495D01*
X21986540Y-19902881D01*
X22007270Y-19898757D01*
X22007874Y-19898698D01*
X22019062Y-19898148D01*
X24012938Y-19898148D01*
X24024126Y-19898698D01*
X24024126Y-19898698D01*
G37*
G36*
X171674126Y-19898698D02*
G01*
X171674730Y-19898757D01*
X171695460Y-19902881D01*
X171713842Y-19910495D01*
X171730386Y-19921550D01*
X171744450Y-19935614D01*
X171755505Y-19952158D01*
X171763119Y-19970540D01*
X171767243Y-19991270D01*
X171767302Y-19991874D01*
X171767852Y-20003062D01*
X171767852Y-24996938D01*
X171767302Y-25008126D01*
X171767243Y-25008730D01*
X171763119Y-25029460D01*
X171755505Y-25047842D01*
X171744450Y-25064386D01*
X171730386Y-25078450D01*
X171713842Y-25089505D01*
X171695460Y-25097119D01*
X171674730Y-25101243D01*
X171674126Y-25101302D01*
X171662938Y-25101852D01*
X169669062Y-25101852D01*
X169657874Y-25101302D01*
X169657270Y-25101243D01*
X169636540Y-25097119D01*
X169618158Y-25089505D01*
X169601614Y-25078450D01*
X169587550Y-25064386D01*
X169576495Y-25047842D01*
X169568881Y-25029460D01*
X169564757Y-25008730D01*
X169564698Y-25008126D01*
X169564148Y-24996938D01*
X169564148Y-20003062D01*
X169564698Y-19991874D01*
X169564757Y-19991270D01*
X169568881Y-19970540D01*
X169576495Y-19952158D01*
X169587550Y-19935614D01*
X169601614Y-19921550D01*
X169618158Y-19910495D01*
X169636540Y-19902881D01*
X169657270Y-19898757D01*
X169657874Y-19898698D01*
X169669062Y-19898148D01*
X171662938Y-19898148D01*
X171674126Y-19898698D01*
X171674126Y-19898698D01*
G37*
G36*
X156774126Y-19898698D02*
G01*
X156774730Y-19898757D01*
X156795460Y-19902881D01*
X156813842Y-19910495D01*
X156830386Y-19921550D01*
X156844450Y-19935614D01*
X156855505Y-19952158D01*
X156863119Y-19970540D01*
X156867243Y-19991270D01*
X156867302Y-19991874D01*
X156867852Y-20003062D01*
X156867852Y-24996938D01*
X156867302Y-25008126D01*
X156867243Y-25008730D01*
X156863119Y-25029460D01*
X156855505Y-25047842D01*
X156844450Y-25064386D01*
X156830386Y-25078450D01*
X156813842Y-25089505D01*
X156795460Y-25097119D01*
X156774730Y-25101243D01*
X156774126Y-25101302D01*
X156762938Y-25101852D01*
X154769062Y-25101852D01*
X154757874Y-25101302D01*
X154757270Y-25101243D01*
X154736540Y-25097119D01*
X154718158Y-25089505D01*
X154701614Y-25078450D01*
X154687550Y-25064386D01*
X154676495Y-25047842D01*
X154668881Y-25029460D01*
X154664757Y-25008730D01*
X154664698Y-25008126D01*
X154664148Y-24996938D01*
X154664148Y-20003062D01*
X154664698Y-19991874D01*
X154664757Y-19991270D01*
X154668881Y-19970540D01*
X154676495Y-19952158D01*
X154687550Y-19935614D01*
X154701614Y-19921550D01*
X154718158Y-19910495D01*
X154736540Y-19902881D01*
X154757270Y-19898757D01*
X154757874Y-19898698D01*
X154769062Y-19898148D01*
X156762938Y-19898148D01*
X156774126Y-19898698D01*
X156774126Y-19898698D01*
G37*
G36*
X144284126Y-19898698D02*
G01*
X144284730Y-19898757D01*
X144305460Y-19902881D01*
X144323842Y-19910495D01*
X144340386Y-19921550D01*
X144354450Y-19935614D01*
X144365505Y-19952158D01*
X144373119Y-19970540D01*
X144377243Y-19991270D01*
X144377302Y-19991874D01*
X144377852Y-20003062D01*
X144377852Y-24996938D01*
X144377302Y-25008126D01*
X144377243Y-25008730D01*
X144373119Y-25029460D01*
X144365505Y-25047842D01*
X144354450Y-25064386D01*
X144340386Y-25078450D01*
X144323842Y-25089505D01*
X144305460Y-25097119D01*
X144284730Y-25101243D01*
X144284126Y-25101302D01*
X144272938Y-25101852D01*
X142279062Y-25101852D01*
X142267874Y-25101302D01*
X142267270Y-25101243D01*
X142246540Y-25097119D01*
X142228158Y-25089505D01*
X142211614Y-25078450D01*
X142197550Y-25064386D01*
X142186495Y-25047842D01*
X142178881Y-25029460D01*
X142174757Y-25008730D01*
X142174698Y-25008126D01*
X142174148Y-24996938D01*
X142174148Y-20003062D01*
X142174698Y-19991874D01*
X142174757Y-19991270D01*
X142178881Y-19970540D01*
X142186495Y-19952158D01*
X142197550Y-19935614D01*
X142211614Y-19921550D01*
X142228158Y-19910495D01*
X142246540Y-19902881D01*
X142267270Y-19898757D01*
X142267874Y-19898698D01*
X142279062Y-19898148D01*
X144272938Y-19898148D01*
X144284126Y-19898698D01*
X144284126Y-19898698D01*
G37*
G36*
X131624126Y-19898698D02*
G01*
X131624730Y-19898757D01*
X131645460Y-19902881D01*
X131663842Y-19910495D01*
X131680386Y-19921550D01*
X131694450Y-19935614D01*
X131705505Y-19952158D01*
X131713119Y-19970540D01*
X131717243Y-19991270D01*
X131717302Y-19991874D01*
X131717852Y-20003062D01*
X131717852Y-24996938D01*
X131717302Y-25008126D01*
X131717243Y-25008730D01*
X131713119Y-25029460D01*
X131705505Y-25047842D01*
X131694450Y-25064386D01*
X131680386Y-25078450D01*
X131663842Y-25089505D01*
X131645460Y-25097119D01*
X131624730Y-25101243D01*
X131624126Y-25101302D01*
X131612938Y-25101852D01*
X129619062Y-25101852D01*
X129607874Y-25101302D01*
X129607270Y-25101243D01*
X129586540Y-25097119D01*
X129568158Y-25089505D01*
X129551614Y-25078450D01*
X129537550Y-25064386D01*
X129526495Y-25047842D01*
X129518881Y-25029460D01*
X129514757Y-25008730D01*
X129514698Y-25008126D01*
X129514148Y-24996938D01*
X129514148Y-20003062D01*
X129514698Y-19991874D01*
X129514757Y-19991270D01*
X129518881Y-19970540D01*
X129526495Y-19952158D01*
X129537550Y-19935614D01*
X129551614Y-19921550D01*
X129568158Y-19910495D01*
X129586540Y-19902881D01*
X129607270Y-19898757D01*
X129607874Y-19898698D01*
X129619062Y-19898148D01*
X131612938Y-19898148D01*
X131624126Y-19898698D01*
X131624126Y-19898698D01*
G37*
G36*
X120944126Y-19898698D02*
G01*
X120944730Y-19898757D01*
X120965460Y-19902881D01*
X120983842Y-19910495D01*
X121000386Y-19921550D01*
X121014450Y-19935614D01*
X121025505Y-19952158D01*
X121033119Y-19970540D01*
X121037243Y-19991270D01*
X121037302Y-19991874D01*
X121037852Y-20003062D01*
X121037852Y-24996938D01*
X121037302Y-25008126D01*
X121037243Y-25008730D01*
X121033119Y-25029460D01*
X121025505Y-25047842D01*
X121014450Y-25064386D01*
X121000386Y-25078450D01*
X120983842Y-25089505D01*
X120965460Y-25097119D01*
X120944730Y-25101243D01*
X120944126Y-25101302D01*
X120932938Y-25101852D01*
X118939062Y-25101852D01*
X118927874Y-25101302D01*
X118927270Y-25101243D01*
X118906540Y-25097119D01*
X118888158Y-25089505D01*
X118871614Y-25078450D01*
X118857550Y-25064386D01*
X118846495Y-25047842D01*
X118838881Y-25029460D01*
X118834757Y-25008730D01*
X118834698Y-25008126D01*
X118834148Y-24996938D01*
X118834148Y-20003062D01*
X118834698Y-19991874D01*
X118834757Y-19991270D01*
X118838881Y-19970540D01*
X118846495Y-19952158D01*
X118857550Y-19935614D01*
X118871614Y-19921550D01*
X118888158Y-19910495D01*
X118906540Y-19902881D01*
X118927270Y-19898757D01*
X118927874Y-19898698D01*
X118939062Y-19898148D01*
X120932938Y-19898148D01*
X120944126Y-19898698D01*
X120944126Y-19898698D01*
G37*
G36*
X107364126Y-19898698D02*
G01*
X107364730Y-19898757D01*
X107385460Y-19902881D01*
X107403842Y-19910495D01*
X107420386Y-19921550D01*
X107434450Y-19935614D01*
X107445505Y-19952158D01*
X107453119Y-19970540D01*
X107457243Y-19991270D01*
X107457302Y-19991874D01*
X107457852Y-20003062D01*
X107457852Y-24996938D01*
X107457302Y-25008126D01*
X107457243Y-25008730D01*
X107453119Y-25029460D01*
X107445505Y-25047842D01*
X107434450Y-25064386D01*
X107420386Y-25078450D01*
X107403842Y-25089505D01*
X107385460Y-25097119D01*
X107364730Y-25101243D01*
X107364126Y-25101302D01*
X107352938Y-25101852D01*
X105359062Y-25101852D01*
X105347874Y-25101302D01*
X105347270Y-25101243D01*
X105326540Y-25097119D01*
X105308158Y-25089505D01*
X105291614Y-25078450D01*
X105277550Y-25064386D01*
X105266495Y-25047842D01*
X105258881Y-25029460D01*
X105254757Y-25008730D01*
X105254698Y-25008126D01*
X105254148Y-24996938D01*
X105254148Y-20003062D01*
X105254698Y-19991874D01*
X105254757Y-19991270D01*
X105258881Y-19970540D01*
X105266495Y-19952158D01*
X105277550Y-19935614D01*
X105291614Y-19921550D01*
X105308158Y-19910495D01*
X105326540Y-19902881D01*
X105347270Y-19898757D01*
X105347874Y-19898698D01*
X105359062Y-19898148D01*
X107352938Y-19898148D01*
X107364126Y-19898698D01*
X107364126Y-19898698D01*
G37*
G36*
X55304126Y-19898698D02*
G01*
X55304730Y-19898757D01*
X55325460Y-19902881D01*
X55343842Y-19910495D01*
X55360386Y-19921550D01*
X55374450Y-19935614D01*
X55385505Y-19952158D01*
X55393119Y-19970540D01*
X55397243Y-19991270D01*
X55397302Y-19991874D01*
X55397852Y-20003062D01*
X55397852Y-24996938D01*
X55397302Y-25008126D01*
X55397243Y-25008730D01*
X55393119Y-25029460D01*
X55385505Y-25047842D01*
X55374450Y-25064386D01*
X55360386Y-25078450D01*
X55343842Y-25089505D01*
X55325460Y-25097119D01*
X55304730Y-25101243D01*
X55304126Y-25101302D01*
X55292938Y-25101852D01*
X53299062Y-25101852D01*
X53287874Y-25101302D01*
X53287270Y-25101243D01*
X53266540Y-25097119D01*
X53248158Y-25089505D01*
X53231614Y-25078450D01*
X53217550Y-25064386D01*
X53206495Y-25047842D01*
X53198881Y-25029460D01*
X53194757Y-25008730D01*
X53194698Y-25008126D01*
X53194148Y-24996938D01*
X53194148Y-20003062D01*
X53194698Y-19991874D01*
X53194757Y-19991270D01*
X53198881Y-19970540D01*
X53206495Y-19952158D01*
X53217550Y-19935614D01*
X53231614Y-19921550D01*
X53248158Y-19910495D01*
X53266540Y-19902881D01*
X53287270Y-19898757D01*
X53287874Y-19898698D01*
X53299062Y-19898148D01*
X55292938Y-19898148D01*
X55304126Y-19898698D01*
X55304126Y-19898698D01*
G37*
G36*
X35954126Y-19898698D02*
G01*
X35954730Y-19898757D01*
X35975460Y-19902881D01*
X35993842Y-19910495D01*
X36010386Y-19921550D01*
X36024450Y-19935614D01*
X36035505Y-19952158D01*
X36043119Y-19970540D01*
X36047243Y-19991270D01*
X36047302Y-19991874D01*
X36047852Y-20003062D01*
X36047852Y-24996938D01*
X36047302Y-25008126D01*
X36047243Y-25008730D01*
X36043119Y-25029460D01*
X36035505Y-25047842D01*
X36024450Y-25064386D01*
X36010386Y-25078450D01*
X35993842Y-25089505D01*
X35975460Y-25097119D01*
X35954730Y-25101243D01*
X35954126Y-25101302D01*
X35942938Y-25101852D01*
X33949062Y-25101852D01*
X33937874Y-25101302D01*
X33937270Y-25101243D01*
X33916540Y-25097119D01*
X33898158Y-25089505D01*
X33881614Y-25078450D01*
X33867550Y-25064386D01*
X33856495Y-25047842D01*
X33848881Y-25029460D01*
X33844757Y-25008730D01*
X33844698Y-25008126D01*
X33844148Y-24996938D01*
X33844148Y-20003062D01*
X33844698Y-19991874D01*
X33844757Y-19991270D01*
X33848881Y-19970540D01*
X33856495Y-19952158D01*
X33867550Y-19935614D01*
X33881614Y-19921550D01*
X33898158Y-19910495D01*
X33916540Y-19902881D01*
X33937270Y-19898757D01*
X33937874Y-19898698D01*
X33949062Y-19898148D01*
X35942938Y-19898148D01*
X35954126Y-19898698D01*
X35954126Y-19898698D01*
G37*
G36*
X41904126Y-19898698D02*
G01*
X41904730Y-19898757D01*
X41925460Y-19902881D01*
X41943842Y-19910495D01*
X41960386Y-19921550D01*
X41974450Y-19935614D01*
X41985505Y-19952158D01*
X41993119Y-19970540D01*
X41997243Y-19991270D01*
X41997302Y-19991874D01*
X41997852Y-20003062D01*
X41997852Y-24996938D01*
X41997302Y-25008126D01*
X41997243Y-25008730D01*
X41993119Y-25029460D01*
X41985505Y-25047842D01*
X41974450Y-25064386D01*
X41960386Y-25078450D01*
X41943842Y-25089505D01*
X41925460Y-25097119D01*
X41904730Y-25101243D01*
X41904126Y-25101302D01*
X41892938Y-25101852D01*
X39899062Y-25101852D01*
X39887874Y-25101302D01*
X39887270Y-25101243D01*
X39866540Y-25097119D01*
X39848158Y-25089505D01*
X39831614Y-25078450D01*
X39817550Y-25064386D01*
X39806495Y-25047842D01*
X39798881Y-25029460D01*
X39794757Y-25008730D01*
X39794698Y-25008126D01*
X39794148Y-24996938D01*
X39794148Y-20003062D01*
X39794698Y-19991874D01*
X39794757Y-19991270D01*
X39798881Y-19970540D01*
X39806495Y-19952158D01*
X39817550Y-19935614D01*
X39831614Y-19921550D01*
X39848158Y-19910495D01*
X39866540Y-19902881D01*
X39887270Y-19898757D01*
X39887874Y-19898698D01*
X39899062Y-19898148D01*
X41892938Y-19898148D01*
X41904126Y-19898698D01*
X41904126Y-19898698D01*
G37*
G36*
X93634126Y-19898698D02*
G01*
X93634730Y-19898757D01*
X93655460Y-19902881D01*
X93673842Y-19910495D01*
X93690386Y-19921550D01*
X93704450Y-19935614D01*
X93715505Y-19952158D01*
X93723119Y-19970540D01*
X93727243Y-19991270D01*
X93727302Y-19991874D01*
X93727852Y-20003062D01*
X93727852Y-24996938D01*
X93727302Y-25008126D01*
X93727243Y-25008730D01*
X93723119Y-25029460D01*
X93715505Y-25047842D01*
X93704450Y-25064386D01*
X93690386Y-25078450D01*
X93673842Y-25089505D01*
X93655460Y-25097119D01*
X93634730Y-25101243D01*
X93634126Y-25101302D01*
X93622938Y-25101852D01*
X91629062Y-25101852D01*
X91617874Y-25101302D01*
X91617270Y-25101243D01*
X91596540Y-25097119D01*
X91578158Y-25089505D01*
X91561614Y-25078450D01*
X91547550Y-25064386D01*
X91536495Y-25047842D01*
X91528881Y-25029460D01*
X91524757Y-25008730D01*
X91524698Y-25008126D01*
X91524148Y-24996938D01*
X91524148Y-20003062D01*
X91524698Y-19991874D01*
X91524757Y-19991270D01*
X91528881Y-19970540D01*
X91536495Y-19952158D01*
X91547550Y-19935614D01*
X91561614Y-19921550D01*
X91578158Y-19910495D01*
X91596540Y-19902881D01*
X91617270Y-19898757D01*
X91617874Y-19898698D01*
X91629062Y-19898148D01*
X93622938Y-19898148D01*
X93634126Y-19898698D01*
X93634126Y-19898698D01*
G37*
G36*
X75814126Y-19898698D02*
G01*
X75814730Y-19898757D01*
X75835460Y-19902881D01*
X75853842Y-19910495D01*
X75870386Y-19921550D01*
X75884450Y-19935614D01*
X75895505Y-19952158D01*
X75903119Y-19970540D01*
X75907243Y-19991270D01*
X75907302Y-19991874D01*
X75907852Y-20003062D01*
X75907852Y-24996938D01*
X75907302Y-25008126D01*
X75907243Y-25008730D01*
X75903119Y-25029460D01*
X75895505Y-25047842D01*
X75884450Y-25064386D01*
X75870386Y-25078450D01*
X75853842Y-25089505D01*
X75835460Y-25097119D01*
X75814730Y-25101243D01*
X75814126Y-25101302D01*
X75802938Y-25101852D01*
X73809062Y-25101852D01*
X73797874Y-25101302D01*
X73797270Y-25101243D01*
X73776540Y-25097119D01*
X73758158Y-25089505D01*
X73741614Y-25078450D01*
X73727550Y-25064386D01*
X73716495Y-25047842D01*
X73708881Y-25029460D01*
X73704757Y-25008730D01*
X73704698Y-25008126D01*
X73704148Y-24996938D01*
X73704148Y-20003062D01*
X73704698Y-19991874D01*
X73704757Y-19991270D01*
X73708881Y-19970540D01*
X73716495Y-19952158D01*
X73727550Y-19935614D01*
X73741614Y-19921550D01*
X73758158Y-19910495D01*
X73776540Y-19902881D01*
X73797270Y-19898757D01*
X73797874Y-19898698D01*
X73809062Y-19898148D01*
X75802938Y-19898148D01*
X75814126Y-19898698D01*
X75814126Y-19898698D01*
G37*
M02*
