G04 #@! TF.GenerationSoftware,KiCad,Pcbnew,(5.1.0)-1*
G04 #@! TF.CreationDate,2019-04-14T13:38:14+09:00*
G04 #@! TF.ProjectId,Yagi-12w14.5dBi,59616769-2d31-4327-9731-342e35644269,rev?*
G04 #@! TF.SameCoordinates,Original*
G04 #@! TF.FileFunction,Soldermask,Bot*
G04 #@! TF.FilePolarity,Negative*
%FSLAX46Y46*%
G04 Gerber Fmt 4.6, Leading zero omitted, Abs format (unit mm)*
G04 Created by KiCad (PCBNEW (5.1.0)-1) date 2019-04-14 13:38:14*
%MOMM*%
%LPD*%
G04 APERTURE LIST*
%ADD10C,0.100000*%
G04 APERTURE END LIST*
D10*
G36*
X65744098Y-23547033D02*
G01*
X66208350Y-23739332D01*
X66208352Y-23739333D01*
X66626168Y-24018509D01*
X66981491Y-24373832D01*
X67260667Y-24791648D01*
X67260668Y-24791650D01*
X67452967Y-25255902D01*
X67551000Y-25748747D01*
X67551000Y-26251253D01*
X67452967Y-26744098D01*
X67260668Y-27208350D01*
X67260667Y-27208352D01*
X66981491Y-27626168D01*
X66626168Y-27981491D01*
X66208352Y-28260667D01*
X66208351Y-28260668D01*
X66208350Y-28260668D01*
X65744098Y-28452967D01*
X65251253Y-28551000D01*
X64748747Y-28551000D01*
X64255902Y-28452967D01*
X63791650Y-28260668D01*
X63791649Y-28260668D01*
X63791648Y-28260667D01*
X63373832Y-27981491D01*
X63018509Y-27626168D01*
X62739333Y-27208352D01*
X62739332Y-27208350D01*
X62547033Y-26744098D01*
X62449000Y-26251253D01*
X62449000Y-25748747D01*
X62547033Y-25255902D01*
X62739332Y-24791650D01*
X62739333Y-24791648D01*
X63018509Y-24373832D01*
X63373832Y-24018509D01*
X63791648Y-23739333D01*
X63791650Y-23739332D01*
X64255902Y-23547033D01*
X64748747Y-23449000D01*
X65251253Y-23449000D01*
X65744098Y-23547033D01*
X65744098Y-23547033D01*
G37*
G36*
X29744098Y-23547033D02*
G01*
X30208350Y-23739332D01*
X30208352Y-23739333D01*
X30626168Y-24018509D01*
X30981491Y-24373832D01*
X31260667Y-24791648D01*
X31260668Y-24791650D01*
X31452967Y-25255902D01*
X31551000Y-25748747D01*
X31551000Y-26251253D01*
X31452967Y-26744098D01*
X31260668Y-27208350D01*
X31260667Y-27208352D01*
X30981491Y-27626168D01*
X30626168Y-27981491D01*
X30208352Y-28260667D01*
X30208351Y-28260668D01*
X30208350Y-28260668D01*
X29744098Y-28452967D01*
X29251253Y-28551000D01*
X28748747Y-28551000D01*
X28255902Y-28452967D01*
X27791650Y-28260668D01*
X27791649Y-28260668D01*
X27791648Y-28260667D01*
X27373832Y-27981491D01*
X27018509Y-27626168D01*
X26739333Y-27208352D01*
X26739332Y-27208350D01*
X26547033Y-26744098D01*
X26449000Y-26251253D01*
X26449000Y-25748747D01*
X26547033Y-25255902D01*
X26739332Y-24791650D01*
X26739333Y-24791648D01*
X27018509Y-24373832D01*
X27373832Y-24018509D01*
X27791648Y-23739333D01*
X27791650Y-23739332D01*
X28255902Y-23547033D01*
X28748747Y-23449000D01*
X29251253Y-23449000D01*
X29744098Y-23547033D01*
X29744098Y-23547033D01*
G37*
M02*
