G04 #@! TF.GenerationSoftware,KiCad,Pcbnew,(5.1.0)-1*
G04 #@! TF.CreationDate,2019-04-14T13:38:14+09:00*
G04 #@! TF.ProjectId,Yagi-12w14.5dBi,59616769-2d31-4327-9731-342e35644269,rev?*
G04 #@! TF.SameCoordinates,Original*
G04 #@! TF.FileFunction,Legend,Bot*
G04 #@! TF.FilePolarity,Positive*
%FSLAX46Y46*%
G04 Gerber Fmt 4.6, Leading zero omitted, Abs format (unit mm)*
G04 Created by KiCad (PCBNEW (5.1.0)-1) date 2019-04-14 13:38:14*
%MOMM*%
%LPD*%
G04 APERTURE LIST*
%ADD10C,0.300000*%
G04 APERTURE END LIST*
D10*
X161976190Y-23261904D02*
X164357142Y-23261904D01*
X164595238Y-25642857D01*
X164357142Y-25404761D01*
X163880952Y-25166666D01*
X162690476Y-25166666D01*
X162214285Y-25404761D01*
X161976190Y-25642857D01*
X161738095Y-26119047D01*
X161738095Y-27309523D01*
X161976190Y-27785714D01*
X162214285Y-28023809D01*
X162690476Y-28261904D01*
X163880952Y-28261904D01*
X164357142Y-28023809D01*
X164595238Y-27785714D01*
X159833333Y-23738095D02*
X159595238Y-23500000D01*
X159119047Y-23261904D01*
X157928571Y-23261904D01*
X157452380Y-23500000D01*
X157214285Y-23738095D01*
X156976190Y-24214285D01*
X156976190Y-24690476D01*
X157214285Y-25404761D01*
X160071428Y-28261904D01*
X156976190Y-28261904D01*
X155309523Y-23261904D02*
X152214285Y-23261904D01*
X153880952Y-25166666D01*
X153166666Y-25166666D01*
X152690476Y-25404761D01*
X152452380Y-25642857D01*
X152214285Y-26119047D01*
X152214285Y-27309523D01*
X152452380Y-27785714D01*
X152690476Y-28023809D01*
X153166666Y-28261904D01*
X154595238Y-28261904D01*
X155071428Y-28023809D01*
X155309523Y-27785714D01*
X149119047Y-23261904D02*
X148642857Y-23261904D01*
X148166666Y-23500000D01*
X147928571Y-23738095D01*
X147690476Y-24214285D01*
X147452380Y-25166666D01*
X147452380Y-26357142D01*
X147690476Y-27309523D01*
X147928571Y-27785714D01*
X148166666Y-28023809D01*
X148642857Y-28261904D01*
X149119047Y-28261904D01*
X149595238Y-28023809D01*
X149833333Y-27785714D01*
X150071428Y-27309523D01*
X150309523Y-26357142D01*
X150309523Y-25166666D01*
X150071428Y-24214285D01*
X149833333Y-23738095D01*
X149595238Y-23500000D01*
X149119047Y-23261904D01*
X145309523Y-26357142D02*
X141500000Y-26357142D01*
X136500000Y-28261904D02*
X139357142Y-28261904D01*
X137928571Y-28261904D02*
X137928571Y-23261904D01*
X138404761Y-23976190D01*
X138880952Y-24452380D01*
X139357142Y-24690476D01*
X132214285Y-24928571D02*
X132214285Y-28261904D01*
X133404761Y-23023809D02*
X134595238Y-26595238D01*
X131500000Y-26595238D01*
X129595238Y-27785714D02*
X129357142Y-28023809D01*
X129595238Y-28261904D01*
X129833333Y-28023809D01*
X129595238Y-27785714D01*
X129595238Y-28261904D01*
X124833333Y-23261904D02*
X127214285Y-23261904D01*
X127452380Y-25642857D01*
X127214285Y-25404761D01*
X126738095Y-25166666D01*
X125547619Y-25166666D01*
X125071428Y-25404761D01*
X124833333Y-25642857D01*
X124595238Y-26119047D01*
X124595238Y-27309523D01*
X124833333Y-27785714D01*
X125071428Y-28023809D01*
X125547619Y-28261904D01*
X126738095Y-28261904D01*
X127214285Y-28023809D01*
X127452380Y-27785714D01*
X122452380Y-26357142D02*
X118642857Y-26357142D01*
X116261904Y-28261904D02*
X116261904Y-24928571D01*
X116261904Y-25880952D02*
X116023809Y-25404761D01*
X115785714Y-25166666D01*
X115309523Y-24928571D01*
X114833333Y-24928571D01*
X110785714Y-23261904D02*
X113166666Y-23261904D01*
X113404761Y-25642857D01*
X113166666Y-25404761D01*
X112690476Y-25166666D01*
X111500000Y-25166666D01*
X111023809Y-25404761D01*
X110785714Y-25642857D01*
X110547619Y-26119047D01*
X110547619Y-27309523D01*
X110785714Y-27785714D01*
X111023809Y-28023809D01*
X111500000Y-28261904D01*
X112690476Y-28261904D01*
X113166666Y-28023809D01*
X113404761Y-27785714D01*
X107452380Y-23261904D02*
X106976190Y-23261904D01*
X106500000Y-23500000D01*
X106261904Y-23738095D01*
X106023809Y-24214285D01*
X105785714Y-25166666D01*
X105785714Y-26357142D01*
X106023809Y-27309523D01*
X106261904Y-27785714D01*
X106500000Y-28023809D01*
X106976190Y-28261904D01*
X107452380Y-28261904D01*
X107928571Y-28023809D01*
X108166666Y-27785714D01*
X108404761Y-27309523D01*
X108642857Y-26357142D01*
X108642857Y-25166666D01*
X108404761Y-24214285D01*
X108166666Y-23738095D01*
X107928571Y-23500000D01*
X107452380Y-23261904D01*
X103642857Y-27785714D02*
X103404761Y-28023809D01*
X103642857Y-28261904D01*
X103880952Y-28023809D01*
X103642857Y-27785714D01*
X103642857Y-28261904D01*
X101738095Y-23261904D02*
X98642857Y-23261904D01*
X100309523Y-25166666D01*
X99595238Y-25166666D01*
X99119047Y-25404761D01*
X98880952Y-25642857D01*
X98642857Y-26119047D01*
X98642857Y-27309523D01*
X98880952Y-27785714D01*
X99119047Y-28023809D01*
X99595238Y-28261904D01*
X101023809Y-28261904D01*
X101500000Y-28023809D01*
X101738095Y-27785714D01*
X96500000Y-24928571D02*
X96500000Y-29214285D01*
X96738095Y-29690476D01*
X97214285Y-29928571D01*
X97452380Y-29928571D01*
X96500000Y-23261904D02*
X96738095Y-23500000D01*
X96500000Y-23738095D01*
X96261904Y-23500000D01*
X96500000Y-23261904D01*
X96500000Y-23738095D01*
X93166666Y-23261904D02*
X92690476Y-23261904D01*
X92214285Y-23500000D01*
X91976190Y-23738095D01*
X91738095Y-24214285D01*
X91500000Y-25166666D01*
X91500000Y-26357142D01*
X91738095Y-27309523D01*
X91976190Y-27785714D01*
X92214285Y-28023809D01*
X92690476Y-28261904D01*
X93166666Y-28261904D01*
X93642857Y-28023809D01*
X93880952Y-27785714D01*
X94119047Y-27309523D01*
X94357142Y-26357142D01*
X94357142Y-25166666D01*
X94119047Y-24214285D01*
X93880952Y-23738095D01*
X93642857Y-23500000D01*
X93166666Y-23261904D01*
X89357142Y-27785714D02*
X89119047Y-28023809D01*
X89357142Y-28261904D01*
X89595238Y-28023809D01*
X89357142Y-27785714D01*
X89357142Y-28261904D01*
X87214285Y-23738095D02*
X86976190Y-23500000D01*
X86500000Y-23261904D01*
X85309523Y-23261904D01*
X84833333Y-23500000D01*
X84595238Y-23738095D01*
X84357142Y-24214285D01*
X84357142Y-24690476D01*
X84595238Y-25404761D01*
X87452380Y-28261904D01*
X84357142Y-28261904D01*
X79595238Y-28261904D02*
X82452380Y-28261904D01*
X81023809Y-28261904D02*
X81023809Y-23261904D01*
X81500000Y-23976190D01*
X81976190Y-24452380D01*
X82452380Y-24690476D01*
X77452380Y-26357142D02*
X73642857Y-26357142D01*
M02*
